<svg width="23" height="29" viewBox="0 0 23 29" fill="none" xmlns="http://www.w3.org/2000/svg">
<path d="M22.2682 9.63231C22.1043 9.75946 19.2109 11.3898 19.2109 15.015C19.2109 19.2081 22.8926 20.6915 23.0028 20.7283C22.9859 20.8187 22.4179 22.7598 21.0617 24.7377C19.8523 26.4783 18.5893 28.216 16.6679 28.216C14.7466 28.216 14.2521 27.0999 12.034 27.0999C9.87248 27.0999 9.10393 28.2527 7.34644 28.2527C5.58894 28.2527 4.36265 26.6421 2.9527 24.6643C1.31953 22.3416 0 18.7334 0 15.3088C0 9.81597 3.5715 6.90283 7.08649 6.90283C8.95418 6.90283 10.5111 8.12912 11.6837 8.12912C12.7998 8.12912 14.5403 6.82936 16.6651 6.82936C17.4704 6.82936 20.3638 6.90283 22.2682 9.63231ZM15.6564 4.50393C16.5351 3.4613 17.1568 2.01462 17.1568 0.567936C17.1568 0.367322 17.1398 0.163882 17.1031 0C15.6733 0.0536855 13.9724 0.952211 12.9467 2.14177C12.1414 3.05725 11.3898 4.50393 11.3898 5.97039C11.3898 6.19079 11.4265 6.41118 11.4435 6.48182C11.5339 6.49877 11.6808 6.51855 11.8278 6.51855C13.1106 6.51855 14.724 5.65958 15.6564 4.50393Z" fill="black"/>
</svg>
