<svg width="23" height="23" viewBox="0 0 23 23" fill="none" xmlns="http://www.w3.org/2000/svg">
<g clip-path="url(#clip0_10_1691)">
<path d="M22.9879 11.7152C22.9879 10.7729 22.9097 10.0853 22.7403 9.37219H11.7291V13.6253H18.1924C18.0622 14.6822 17.3585 16.2739 15.7948 17.3435L15.7728 17.4859L19.2544 20.1215L19.4956 20.1451C21.7108 18.1458 22.9879 15.2043 22.9879 11.7152Z" fill="#4285F4"/>
<path d="M11.729 22.921C14.8955 22.921 17.5538 21.9023 19.4955 20.1451L15.7947 17.3435C14.8043 18.0184 13.4751 18.4896 11.729 18.4896C8.62767 18.4896 5.99543 16.4904 5.0571 13.7272L4.91957 13.7386L1.29942 16.4764L1.25208 16.605C3.18064 20.3487 7.14207 22.921 11.729 22.921Z" fill="#34A853"/>
<path d="M5.0572 13.7272C4.80961 13.0141 4.66633 12.25 4.66633 11.4605C4.66633 10.671 4.80961 9.90698 5.04417 9.1939L5.03761 9.04203L1.37209 6.26025L1.25217 6.316C0.45731 7.86955 0.0012207 9.61413 0.0012207 11.4605C0.0012207 13.3069 0.45731 15.0514 1.25217 16.605L5.0572 13.7272Z" fill="#FBBC05"/>
<path d="M11.729 4.43136C13.9312 4.43136 15.4167 5.36093 16.2638 6.13775L19.5736 2.97973C17.5409 1.13332 14.8955 0 11.729 0C7.14208 0 3.18064 2.57222 1.25208 6.31596L5.04408 9.19385C5.99543 6.4306 8.62767 4.43136 11.729 4.43136Z" fill="#EB4335"/>
</g>
<defs>
<clipPath id="clip0_10_1691">
<rect width="23" height="23" fill="white"/>
</clipPath>
</defs>
</svg>
