<svg width="24" height="27" viewBox="0 0 24 27" fill="none" xmlns="http://www.w3.org/2000/svg">
<path d="M18 9.14008H17.87C15.98 9.07461 14.57 7.48159 14.57 5.51759C14.57 3.50994 16.07 1.88419 17.9 1.88419C19.73 1.88419 21.23 3.52085 21.23 5.51759C21.2312 6.46103 20.8958 7.36794 20.2947 8.04616C19.6937 8.72439 18.8742 9.12065 18.01 9.15099C18.01 9.14008 18.01 9.14008 18 9.14008ZM17.9 3.50994C16.89 3.50994 16.07 4.40465 16.07 5.50668C16.07 6.58688 16.84 7.45976 17.83 7.50341C17.84 7.4925 17.92 7.4925 18.01 7.50341C18.4835 7.46934 18.9264 7.23614 19.2455 6.85291C19.5646 6.46967 19.7349 5.9663 19.7206 5.44878C19.7064 4.93125 19.5086 4.43995 19.1691 4.07831C18.8295 3.71668 18.3745 3.51292 17.9 3.50994ZM18.009 17.1794C17.619 17.1794 17.229 17.1466 16.839 17.0703C16.7417 17.0518 16.6488 17.0126 16.5654 16.9549C16.4821 16.8971 16.41 16.822 16.3534 16.7338C16.2967 16.6456 16.2565 16.5461 16.2352 16.4409C16.2139 16.3358 16.2117 16.2271 16.229 16.121C16.2459 16.0149 16.2818 15.9135 16.3348 15.8225C16.3877 15.7316 16.4565 15.653 16.5373 15.5911C16.6182 15.5293 16.7094 15.4855 16.8058 15.4622C16.9022 15.4389 17.0018 15.4366 17.099 15.4554C18.329 15.6846 19.629 15.4336 20.499 14.8008C20.969 14.4625 21.219 14.037 21.219 13.6114C21.219 13.1859 20.959 12.7713 20.499 12.433C19.629 11.8002 18.309 11.5492 17.069 11.7893C16.659 11.8766 16.269 11.5711 16.199 11.1237C16.129 10.6764 16.399 10.2508 16.809 10.1744C18.439 9.85803 20.129 10.1963 21.329 11.0692C22.209 11.7129 22.719 12.6294 22.719 13.6114C22.719 14.5825 22.219 15.51 21.329 16.1646C20.419 16.8193 19.239 17.1794 18.009 17.1794ZM5.97 9.13789H5.95C5.08726 9.10843 4.26886 8.71394 3.66792 8.03788C3.06697 7.36182 2.73062 6.45721 2.73 5.5154C2.73 3.50776 4.23 1.87109 6.06 1.87109C7.89 1.87109 9.39 3.50776 9.39 5.50449C9.39 7.4794 7.98 9.07243 6.18 9.13789L5.97 8.31956L6.04 9.13789H5.97ZM6.07 7.50123C6.13 7.50123 6.18 7.50123 6.24 7.51214C7.13 7.46849 7.91 6.5956 7.91 5.5154C7.90947 5.12526 7.80419 4.74384 7.60719 4.41826C7.41018 4.09267 7.13007 3.83719 6.80147 3.68338C6.47287 3.52957 6.11017 3.48416 5.75818 3.55277C5.40618 3.62139 5.08033 3.80101 4.82086 4.06945C4.56139 4.33789 4.37968 4.68338 4.29818 5.06326C4.21667 5.44313 4.23895 5.84073 4.36225 6.20694C4.48555 6.57315 4.70448 6.89193 4.99198 7.12388C5.27949 7.35584 5.62297 7.49082 5.98 7.51214C5.99 7.50123 6.03 7.50123 6.07 7.50123ZM5.96 17.1794C4.73 17.1794 3.55 16.8193 2.64 16.1646C1.76 15.5209 1.25 14.5934 1.25 13.6114C1.25 12.6404 1.76 11.7129 2.64 11.0692C3.84 10.1963 5.53 9.85803 7.16 10.1744C7.57 10.2508 7.84 10.6764 7.77 11.1237C7.7 11.5711 7.31 11.8766 6.9 11.7893C5.66 11.5492 4.35 11.8002 3.47 12.433C3 12.7713 2.75 13.1859 2.75 13.6114C2.75 14.037 3.01 14.4625 3.47 14.8008C4.34 15.4336 5.64 15.6846 6.87 15.4554C7.28 15.379 7.67 15.6846 7.74 16.121C7.81 16.5684 7.54 16.9939 7.13 17.0703C6.74 17.1466 6.35 17.1794 5.96 17.1794ZM12 17.2885H11.87C9.98 17.223 8.57 15.63 8.57 13.666C8.57 11.6584 10.07 10.0326 11.9 10.0326C13.73 10.0326 15.23 11.6693 15.23 13.666C15.2312 14.6094 14.8958 15.5164 14.2947 16.1946C13.6937 16.8728 12.8742 17.2691 12.01 17.2994C12.01 17.2885 12.01 17.2885 12 17.2885ZM11.9 11.6584C10.89 11.6584 10.07 12.5531 10.07 13.6551C10.07 14.7353 10.84 15.6082 11.83 15.6518C11.84 15.6409 11.92 15.6409 12.01 15.6518C12.98 15.5973 13.73 14.7244 13.74 13.6551C13.74 12.564 12.92 11.6584 11.9 11.6584ZM12.001 25.3398C10.801 25.3398 9.601 25.0016 8.671 24.3142C7.791 23.6704 7.281 22.7539 7.281 21.7719C7.281 20.8008 7.781 19.8624 8.671 19.2187C10.541 17.8657 13.471 17.8657 15.331 19.2187C16.211 19.8624 16.721 20.779 16.721 21.761C16.721 22.732 16.221 23.6704 15.331 24.3142C14.401 24.9906 13.201 25.3398 12.001 25.3398ZM9.501 20.5935C9.031 20.9317 8.781 21.3572 8.781 21.7828C8.781 22.2083 9.041 22.6229 9.501 22.9612C10.851 23.9541 13.141 23.9541 14.491 22.9612C14.961 22.6229 15.211 22.1974 15.211 21.7719C15.211 21.3463 14.951 20.9317 14.491 20.5935C13.151 19.6006 10.861 19.6115 9.501 20.5935Z" fill="#CCCCCC"/>
</svg>
