<svg width="19" height="23" viewBox="0 0 19 23" fill="none" xmlns="http://www.w3.org/2000/svg">
<path d="M5.43542 13.0176C5.26452 13.9551 4.58581 18.3252 4.38562 19.5606C4.37097 19.6484 4.33679 19.6826 4.23913 19.6826H0.596556C0.225462 19.6826 -0.0430923 19.3604 0.00573583 19.0039L2.86706 0.844737C2.94031 0.375987 3.36023 0.0195421 3.84363 0.0195421C11.2801 0.0195421 11.9051 -0.161122 13.8046 0.576183C16.7391 1.71388 17.0077 4.45802 15.953 7.42677C14.9032 10.4834 12.413 11.7969 9.11218 11.8359C6.99304 11.8701 5.71863 11.4942 5.43542 13.0176ZM17.4325 5.99122C17.3446 5.92774 17.3104 5.90333 17.286 6.0547C17.1884 6.61134 17.037 7.15333 16.8563 7.69532C14.9081 13.252 9.50769 12.7686 6.87097 12.7686C6.57312 12.7686 6.37781 12.9297 6.33874 13.2275C5.23523 20.083 5.0155 21.5137 5.0155 21.5137C4.96667 21.8604 5.1864 22.1436 5.53308 22.1436H8.63366C9.05359 22.1436 9.40027 21.8359 9.48327 21.416C9.51745 21.1524 9.42956 21.7139 10.1864 16.958C10.411 15.8838 10.8846 15.9961 11.6171 15.9961C15.0839 15.9961 17.7889 14.5899 18.5946 10.5127C18.912 8.81349 18.8192 7.02638 17.4325 5.99122Z" fill="#CCCCCC"/>
</svg>
