<svg width="24" height="27" viewBox="0 0 24 27" fill="none" xmlns="http://www.w3.org/2000/svg">
<path d="M15 24.0789H9C3.57 24.0789 1.25 21.7589 1.25 16.3289V10.3289C1.25 4.89886 3.57 2.57886 9 2.57886H15C20.43 2.57886 22.75 4.89886 22.75 10.3289V16.3289C22.75 21.7589 20.43 24.0789 15 24.0789ZM9 4.07886C4.39 4.07886 2.75 5.71886 2.75 10.3289V16.3289C2.75 20.9389 4.39 22.5789 9 22.5789H15C19.61 22.5789 21.25 20.9389 21.25 16.3289V10.3289C21.25 5.71886 19.61 4.07886 15 4.07886H9Z" fill="#CCCCCC"/>
<path d="M15.5801 20.5809C15.1701 20.5809 14.8301 20.2409 14.8301 19.8309V15.9309C14.8301 15.5209 15.1701 15.1809 15.5801 15.1809C15.9901 15.1809 16.3301 15.5209 16.3301 15.9309V19.8309C16.3301 20.2409 15.9901 20.5809 15.5801 20.5809ZM15.5801 9.52886C15.1701 9.52886 14.8301 9.18886 14.8301 8.77886V6.82886C14.8301 6.41886 15.1701 6.07886 15.5801 6.07886C15.9901 6.07886 16.3301 6.41886 16.3301 6.82886V8.77886C16.3301 9.18886 15.9901 9.52886 15.5801 9.52886Z" fill="#CCCCCC"/>
<path d="M15.5799 14.7289C14.9174 14.7289 14.2697 14.5324 13.7188 14.1643C13.1679 13.7962 12.7385 13.273 12.4849 12.6608C12.2314 12.0487 12.165 11.3751 12.2943 10.7253C12.4236 10.0755 12.7426 9.47856 13.2111 9.01005C13.6796 8.54154 14.2765 8.22249 14.9264 8.09323C15.5762 7.96397 16.2498 8.03031 16.8619 8.28386C17.474 8.53741 17.9972 8.96679 18.3653 9.5177C18.7334 10.0686 18.9299 10.7163 18.9299 11.3789C18.9299 13.2289 17.4199 14.7289 15.5799 14.7289ZM15.5799 9.52886C14.5599 9.52886 13.7299 10.3589 13.7299 11.3789C13.7299 12.3989 14.5599 13.2289 15.5799 13.2289C16.5999 13.2289 17.4299 12.3989 17.4299 11.3789C17.4299 10.3589 16.5899 9.52886 15.5799 9.52886ZM8.41992 20.5789C8.00992 20.5789 7.66992 20.2389 7.66992 19.8289V17.8789C7.66992 17.4689 8.00992 17.1289 8.41992 17.1289C8.82992 17.1289 9.16992 17.4689 9.16992 17.8789V19.8289C9.16992 20.2389 8.83992 20.5789 8.41992 20.5789ZM8.41992 11.4789C8.00992 11.4789 7.66992 11.1389 7.66992 10.7289V6.82886C7.66992 6.41886 8.00992 6.07886 8.41992 6.07886C8.82992 6.07886 9.16992 6.41886 9.16992 6.82886V10.7289C9.16992 11.1389 8.83992 11.4789 8.41992 11.4789Z" fill="#CCCCCC"/>
<path d="M8.42007 18.6309C7.98014 18.6309 7.54452 18.5443 7.13808 18.3759C6.73164 18.2076 6.36234 17.9608 6.05126 17.6497C5.74018 17.3386 5.49343 16.9693 5.32507 16.5629C5.15672 16.1565 5.07007 15.7208 5.07007 15.2809C5.07007 14.841 5.15672 14.4054 5.32507 13.9989C5.49343 13.5925 5.74018 13.2232 6.05126 12.9121C6.36234 12.601 6.73164 12.3543 7.13808 12.1859C7.54452 12.0176 7.98014 11.9309 8.42007 11.9309C9.30854 11.9309 10.1606 12.2839 10.7889 12.9121C11.4171 13.5403 11.7701 14.3924 11.7701 15.2809C11.7701 16.1694 11.4171 17.0215 10.7889 17.6497C10.1606 18.278 9.30854 18.6309 8.42007 18.6309ZM8.42007 13.4309C7.40007 13.4309 6.57007 14.2609 6.57007 15.2809C6.57007 16.3009 7.40007 17.1309 8.42007 17.1309C9.44007 17.1309 10.2701 16.3009 10.2701 15.2809C10.2701 14.2609 9.45007 13.4309 8.42007 13.4309Z" fill="#CCCCCC"/>
</svg>
