<svg width="24" height="28" viewBox="0 0 24 28" fill="none" xmlns="http://www.w3.org/2000/svg">
<path d="M12 21.4073C11.59 21.4073 11.25 21.0363 11.25 20.589V17.3156C11.25 16.8683 11.59 16.4973 12 16.4973C12.41 16.4973 12.75 16.8683 12.75 17.3156V20.589C12.75 21.0363 12.41 21.4073 12 21.4073Z" fill="white"/>
<path d="M17.6 25.5644H6.39996C4.57996 25.5644 2.91996 24.0369 2.61996 22.0838L1.28996 13.3876C1.06996 12.0347 1.67996 10.2998 2.66996 9.43781L9.59996 3.38215C10.94 2.20375 13.05 2.21466 14.4 3.39306L21.33 9.43781C22.31 10.2998 22.91 12.0347 22.71 13.3876L21.38 22.0729C21.08 24.0041 19.38 25.5644 17.6 25.5644ZM11.99 4.14593C11.46 4.14593 10.93 4.3205 10.54 4.65875L3.60996 10.7253C3.04996 11.2163 2.64996 12.3511 2.76996 13.1258L4.09996 21.811C4.27996 22.9567 5.32996 23.9278 6.39996 23.9278H17.6C18.67 23.9278 19.72 22.9567 19.9 21.8001L21.23 13.1149C21.34 12.3511 20.94 11.1945 20.39 10.7144L13.46 4.66966C13.06 4.3205 12.52 4.14593 11.99 4.14593Z" fill="white"/>
</svg>
