<svg width="24" height="27" viewBox="0 0 24 27" fill="none" xmlns="http://www.w3.org/2000/svg">
<path d="M7.4999 17.3428C7.3099 17.3428 7.1199 17.2664 6.9699 17.1027C6.83042 16.9487 6.7522 16.741 6.7522 16.5245C6.7522 16.3079 6.83042 16.1002 6.9699 15.9462L10.1699 12.4546C10.2473 12.368 10.3414 12.3014 10.4455 12.2597C10.5496 12.218 10.6609 12.2024 10.7713 12.2139C10.8816 12.2254 10.9882 12.2638 11.0831 12.3263C11.1781 12.3887 11.259 12.4736 11.3199 12.5746L12.4099 14.3641L15.9599 10.4906C16.2499 10.1742 16.7299 10.1742 17.0199 10.4906C17.3099 10.807 17.3099 11.3308 17.0199 11.6472L12.8199 16.2299C12.7425 16.3165 12.6484 16.3831 12.5443 16.4248C12.4402 16.4664 12.3289 16.4821 12.2185 16.4706C12.1082 16.459 12.0016 16.4206 11.9067 16.3582C11.8117 16.2958 11.7308 16.2109 11.6699 16.1098L10.5799 14.3204L8.0299 17.1027C7.8799 17.2664 7.6899 17.3428 7.4999 17.3428Z" fill="#CCCCCC"/>
<path d="M16.5 14.0684C16.09 14.0684 15.75 13.6974 15.75 13.2501V11.8862H14.5C14.09 11.8862 13.75 11.5152 13.75 11.0678C13.75 10.6205 14.09 10.2495 14.5 10.2495H16.5C16.91 10.2495 17.25 10.6205 17.25 11.0678V13.2501C17.25 13.6974 16.91 14.0684 16.5 14.0684Z" fill="#CCCCCC"/>
<path d="M15 25.525H9C3.57 25.525 1.25 22.9937 1.25 17.0689V10.5223C1.25 4.59754 3.57 2.06616 9 2.06616H15C20.43 2.06616 22.75 4.59754 22.75 10.5223V17.0689C22.75 22.9937 20.43 25.525 15 25.525ZM9 3.70283C4.39 3.70283 2.75 5.49225 2.75 10.5223V17.0689C2.75 22.099 4.39 23.8884 9 23.8884H15C19.61 23.8884 21.25 22.099 21.25 17.0689V10.5223C21.25 5.49225 19.61 3.70283 15 3.70283H9Z" fill="#CCCCCC"/>
</svg>
