<svg width="24" height="27" viewBox="0 0 24 27" fill="none" xmlns="http://www.w3.org/2000/svg">
<path d="M15 25.3562H9C3.57 25.3562 1.25 22.8248 1.25 16.9001V10.3534C1.25 4.42872 3.57 1.89734 9 1.89734H14C14.41 1.89734 14.75 2.26832 14.75 2.71567C14.75 3.16303 14.41 3.53401 14 3.53401H9C4.39 3.53401 2.75 5.32343 2.75 10.3534V16.9001C2.75 21.9301 4.39 23.7196 9 23.7196H15C19.61 23.7196 21.25 21.9301 21.25 16.9001V11.4446C21.25 10.9972 21.59 10.6262 22 10.6262C22.41 10.6262 22.75 10.9972 22.75 11.4446V16.9001C22.75 22.8248 20.43 25.3562 15 25.3562Z" fill="#CCCCCC"/>
<path d="M22 12.2607H18C14.58 12.2607 13.25 10.8095 13.25 7.0779V2.71345C13.25 2.38612 13.43 2.08061 13.71 1.96058C13.99 1.82965 14.31 1.90603 14.53 2.13516L22.53 10.8641C22.6343 10.9787 22.7052 11.1244 22.7338 11.2829C22.7624 11.4413 22.7474 11.6055 22.6908 11.7547C22.6342 11.904 22.5384 12.0316 22.4155 12.1216C22.2926 12.2116 22.148 12.26 22 12.2607ZM14.75 4.68836V7.0779C14.75 9.89296 15.42 10.624 18 10.624H20.19L14.75 4.68836Z" fill="#CCCCCC"/>
</svg>
