<svg width="125" height="48" viewBox="0 0 125 48" fill="none" xmlns="http://www.w3.org/2000/svg">
<path fill-rule="evenodd" clip-rule="evenodd" d="M29.5229 15.6538C32.1887 15.6538 34.3498 13.4927 34.3498 10.8269C34.3498 8.16107 32.1887 6 29.5229 6C26.8571 6 24.696 8.16107 24.696 10.8269C24.696 13.4927 26.8571 15.6538 29.5229 15.6538Z" fill="white"/>
<path fill-rule="evenodd" clip-rule="evenodd" d="M29.5227 27.7766C32.1885 27.7766 34.3496 25.6156 34.3496 22.9499C34.3496 20.2842 32.1885 18.1232 29.5227 18.1232C26.8569 18.1232 24.6958 20.2842 24.6958 22.9499C24.6958 25.6156 26.8569 27.7766 29.5227 27.7766Z" fill="white"/>
<path fill-rule="evenodd" clip-rule="evenodd" d="M29.5227 40.3493C32.1885 40.3493 34.3496 38.1882 34.3496 35.5224C34.3496 32.8566 32.1885 30.6956 29.5227 30.6956C26.8569 30.6956 24.6958 32.8566 24.6958 35.5224C24.6958 38.1882 26.8569 40.3493 29.5227 40.3493Z" fill="white"/>
<path fill-rule="evenodd" clip-rule="evenodd" d="M16.9505 27.7768C19.6162 27.7768 21.7772 25.6158 21.7772 22.95C21.7772 20.2843 19.6162 18.1233 16.9505 18.1233C14.2848 18.1233 12.1238 20.2843 12.1238 22.95C12.1238 25.6158 14.2848 27.7768 16.9505 27.7768Z" fill="white"/>
<path fill-rule="evenodd" clip-rule="evenodd" d="M16.9505 40.3493C19.6162 40.3493 21.7772 38.1882 21.7772 35.5224C21.7772 32.8566 19.6162 30.6956 16.9505 30.6956C14.2848 30.6956 12.1238 32.8566 12.1238 35.5224C12.1238 38.1882 14.2848 40.3493 16.9505 40.3493Z" fill="white"/>
<path fill-rule="evenodd" clip-rule="evenodd" d="M4.82688 40.3493C7.49269 40.3493 9.65376 38.1882 9.65376 35.5224C9.65376 32.8566 7.49269 30.6956 4.82688 30.6956C2.16107 30.6956 0 32.8566 0 35.5224C0 38.1882 2.16107 40.3493 4.82688 40.3493Z" fill="white"/>
<path d="M54.3281 7.17468V37.1747H48.6836V7.17468H54.3281ZM58.0781 26.8231V26.413C58.0781 24.8635 58.2995 23.4377 58.7422 22.1356C59.1849 20.8205 59.8294 19.6812 60.6758 18.7177C61.5221 17.7541 62.5638 17.0054 63.8008 16.4716C65.0378 15.9247 66.457 15.6512 68.0586 15.6512C69.6602 15.6512 71.0859 15.9247 72.3359 16.4716C73.5859 17.0054 74.6341 17.7541 75.4805 18.7177C76.3398 19.6812 76.9909 20.8205 77.4336 22.1356C77.8763 23.4377 78.0977 24.8635 78.0977 26.413V26.8231C78.0977 28.3596 77.8763 29.7854 77.4336 31.1005C76.9909 32.4025 76.3398 33.5419 75.4805 34.5184C74.6341 35.482 73.5924 36.2307 72.3555 36.7645C71.1185 37.2984 69.6992 37.5653 68.0977 37.5653C66.4961 37.5653 65.0703 37.2984 63.8203 36.7645C62.5833 36.2307 61.5352 35.482 60.6758 34.5184C59.8294 33.5419 59.1849 32.4025 58.7422 31.1005C58.2995 29.7854 58.0781 28.3596 58.0781 26.8231ZM63.7031 26.413V26.8231C63.7031 27.7085 63.7812 28.5354 63.9375 29.3036C64.0938 30.0718 64.3411 30.7489 64.6797 31.3348C65.0312 31.9078 65.487 32.357 66.0469 32.6825C66.6068 33.008 67.2904 33.1708 68.0977 33.1708C68.8789 33.1708 69.5495 33.008 70.1094 32.6825C70.6693 32.357 71.1185 31.9078 71.457 31.3348C71.7956 30.7489 72.043 30.0718 72.1992 29.3036C72.3685 28.5354 72.4531 27.7085 72.4531 26.8231V26.413C72.4531 25.5536 72.3685 24.7463 72.1992 23.9911C72.043 23.2229 71.7891 22.5458 71.4375 21.9598C71.099 21.3609 70.6497 20.8921 70.0898 20.5536C69.5299 20.215 68.8529 20.0458 68.0586 20.0458C67.2643 20.0458 66.5872 20.215 66.0273 20.5536C65.4805 20.8921 65.0312 21.3609 64.6797 21.9598C64.3411 22.5458 64.0938 23.2229 63.9375 23.9911C63.7812 24.7463 63.7031 25.5536 63.7031 26.413ZM94.9336 16.0419H100.031V36.4716C100.031 38.3986 99.6016 40.0328 98.7422 41.3739C97.8958 42.7281 96.7109 43.7502 95.1875 44.4403C93.6641 45.1434 91.8932 45.495 89.875 45.495C88.9896 45.495 88.0521 45.3778 87.0625 45.1434C86.0859 44.9091 85.1484 44.5445 84.25 44.0497C83.3646 43.5549 82.6224 42.9299 82.0234 42.1747L84.5039 38.8544C85.1549 39.6096 85.9102 40.1955 86.7695 40.6122C87.6289 41.0419 88.5794 41.2567 89.6211 41.2567C90.6367 41.2567 91.4961 41.0679 92.1992 40.6903C92.9023 40.3257 93.4427 39.7854 93.8203 39.0692C94.1979 38.3661 94.3867 37.5132 94.3867 36.5106V20.9247L94.9336 16.0419ZM80.7148 26.8622V26.452C80.7148 24.8374 80.9102 23.3726 81.3008 22.0575C81.7044 20.7294 82.2708 19.59 83 18.6395C83.7422 17.689 84.6406 16.9533 85.6953 16.4325C86.75 15.9117 87.9414 15.6512 89.2695 15.6512C90.6758 15.6512 91.8542 15.9117 92.8047 16.4325C93.7552 16.9533 94.5365 17.6955 95.1484 18.6591C95.7604 19.6096 96.2357 20.7359 96.5742 22.038C96.9258 23.327 97.1992 24.7398 97.3945 26.2762V27.1747C97.1992 28.646 96.9062 30.0132 96.5156 31.2762C96.125 32.5393 95.6107 33.646 94.9727 34.5966C94.3346 35.5341 93.5404 36.2632 92.5898 36.7841C91.6523 37.3049 90.5326 37.5653 89.2305 37.5653C87.9284 37.5653 86.75 37.2984 85.6953 36.7645C84.6536 36.2307 83.7617 35.482 83.0195 34.5184C82.2773 33.5549 81.7044 32.4221 81.3008 31.12C80.9102 29.8179 80.7148 28.3986 80.7148 26.8622ZM86.3398 26.452V26.8622C86.3398 27.7346 86.4245 28.5484 86.5938 29.3036C86.763 30.0588 87.0234 30.7294 87.375 31.3153C87.7396 31.8882 88.1888 32.3374 88.7227 32.663C89.2695 32.9755 89.9141 33.1317 90.6562 33.1317C91.6849 33.1317 92.5247 32.9169 93.1758 32.4872C93.8268 32.0445 94.3151 31.439 94.6406 30.6708C94.9661 29.9025 95.1549 29.0171 95.207 28.0145V25.4559C95.181 24.6356 95.0703 23.8999 94.875 23.2489C94.6797 22.5848 94.4062 22.0184 94.0547 21.5497C93.7031 21.0809 93.2474 20.7163 92.6875 20.4559C92.1276 20.1955 91.4635 20.0653 90.6953 20.0653C89.9531 20.0653 89.3086 20.2346 88.7617 20.5731C88.2279 20.8986 87.7786 21.3479 87.4141 21.9208C87.0625 22.4937 86.7956 23.1708 86.6133 23.952C86.431 24.7203 86.3398 25.5536 86.3398 26.452ZM103.508 26.8231V26.413C103.508 24.8635 103.729 23.4377 104.172 22.1356C104.615 20.8205 105.259 19.6812 106.105 18.7177C106.952 17.7541 107.993 17.0054 109.23 16.4716C110.467 15.9247 111.887 15.6512 113.488 15.6512C115.09 15.6512 116.516 15.9247 117.766 16.4716C119.016 17.0054 120.064 17.7541 120.91 18.7177C121.77 19.6812 122.421 20.8205 122.863 22.1356C123.306 23.4377 123.527 24.8635 123.527 26.413V26.8231C123.527 28.3596 123.306 29.7854 122.863 31.1005C122.421 32.4025 121.77 33.5419 120.91 34.5184C120.064 35.482 119.022 36.2307 117.785 36.7645C116.548 37.2984 115.129 37.5653 113.527 37.5653C111.926 37.5653 110.5 37.2984 109.25 36.7645C108.013 36.2307 106.965 35.482 106.105 34.5184C105.259 33.5419 104.615 32.4025 104.172 31.1005C103.729 29.7854 103.508 28.3596 103.508 26.8231ZM109.133 26.413V26.8231C109.133 27.7085 109.211 28.5354 109.367 29.3036C109.523 30.0718 109.771 30.7489 110.109 31.3348C110.461 31.9078 110.917 32.357 111.477 32.6825C112.036 33.008 112.72 33.1708 113.527 33.1708C114.309 33.1708 114.979 33.008 115.539 32.6825C116.099 32.357 116.548 31.9078 116.887 31.3348C117.225 30.7489 117.473 30.0718 117.629 29.3036C117.798 28.5354 117.883 27.7085 117.883 26.8231V26.413C117.883 25.5536 117.798 24.7463 117.629 23.9911C117.473 23.2229 117.219 22.5458 116.867 21.9598C116.529 21.3609 116.079 20.8921 115.52 20.5536C114.96 20.215 114.283 20.0458 113.488 20.0458C112.694 20.0458 112.017 20.215 111.457 20.5536C110.91 20.8921 110.461 21.3609 110.109 21.9598C109.771 22.5458 109.523 23.2229 109.367 23.9911C109.211 24.7463 109.133 25.5536 109.133 26.413Z" fill="white"/>
</svg>
